<svg id="Layer_1" xmlns="http://www.w3.org/2000/svg" viewBox="0 0 612 197"><style>.st0,.st1{fill-rule:evenodd;clip-rule:evenodd}.st0{stroke:#2f302e;stroke-miterlimit:10;fill:#30302f}.st1{fill:#034a6d}.st2{fill:#30302f}.st3{fill:#034a6d}</style><path class="st0" d="M433.4 123.3h64.3v13.4h-85.4l-.1-12.6L476 59.3h-63.8V45.8h85.5v12.5z"/><path class="st1" d="M554.7 80.8l29.5-35H602l-38.5 45.4 38.5 45.5-17.8-.1-29.5-34.9-29.6 34.9-17.8.1 38.5-45.5-38.5-45.4H525z"/><path class="st0" d="M207.9 45.4H222v45.9c0 17.3 14.3 31.6 31.6 31.6s31.6-14.3 31.6-31.6V45.4h14.2v45.9c0 25.2-20.7 45.9-45.9 45.9s-45.7-20.7-45.7-45.9V45.4z"/><path class="st2" d="M116.1 156.9c-4.3 1-8.8 1.6-13.5 1.6-32.8 0-59.4-26.6-59.4-59.4s26.6-59.4 59.4-59.4S162 66.3 162 99.1c0 20-10 37.7-25.2 48.5l21 24.1c21.9-16.6 36-42.9 36-72.5C193.8 48.9 153 8 102.6 8 52.3 8 11.5 48.9 11.5 99.2c0 50.3 40.8 91.1 91.1 91.1 13.1 0 25.5-2.8 36.7-7.7l-23.2-25.7z"/><circle class="st3" cx="102.6" cy="99.2" r="38.7"/><path class="st0" d="M383.3 108.3c-5.7 8.9-15.7 14.6-26.7 14.6-16.8 0-30.7-13.3-31.5-30h77.3v-1.6c0-25.2-20.4-45.6-45.7-45.6-25.2 0-45.6 20.4-45.6 45.6s20.4 45.6 45.6 45.6c19 0 35.5-11.6 42.3-28.6h-15.7zm-26.7-48.7c13 0 24.4 7.8 29.3 19.6h-58.4c4.8-11.8 16.2-19.6 29.1-19.6z"/></svg>