<svg id="Layer_1" xmlns="http://www.w3.org/2000/svg" viewBox="0 0 436 150"><style>.st0{fill-rule:evenodd;clip-rule:evenodd}.st0,.st1{fill:#fff}</style><path class="st0" d="M302.9 92.6h47.2v9.9h-62.7l-.1-9.2 46.8-47.6h-46.8v-9.9h62.8V45z"/><path class="st1" d="M351.1 103.5h-64.7l-.1-10.7 45.4-46.1h-45.4v-12h64.8v10.7l-.3.3-45.4 45.9h45.7v11.9zm-62.7-2H349v-7.8h-48.6L349 44.6v-7.8h-60.7v7.9h48.2l-48.2 49 .1 7.8z"/><path class="st0" d="M391.9 61.4l21.6-25.6h13.1l-28.2 33.3 28.2 33.4-13.1-.1-21.6-25.6-21.7 25.6-13.1.1 28.3-33.4-28.3-33.3h13z"/><path class="st1" d="M428.8 103.5l-15.8-.1-21.2-25-21.2 25-15.8.1L384 69.1l-29.1-34.4h15.7l21.3 25.1 21.2-25.1h15.8l-29.1 34.4 29 34.4zm-14.8-2.1l10.4.1L397 69.1l27.4-32.3H414L391.9 63l-22.2-26.3h-10.3L386.8 69l-27.4 32.3 10.4-.1L391.9 75l22.1 26.4z"/><path class="st0" d="M147.7 35.5H158v33.6c0 12.7 10.5 23.2 23.2 23.2s23.2-10.5 23.2-23.2V35.5h10.4v33.6c0 18.5-15.2 33.6-33.6 33.6s-33.6-15.2-33.6-33.6V35.5z"/><path class="st1" d="M181.3 103.8c-19.1 0-34.6-15.6-34.6-34.7V34.5h12.4v34.7c0 12.2 10 22.2 22.2 22.2s22.2-10 22.2-22.2V34.5H216v34.7c-.1 19-15.6 34.6-34.7 34.6zm-32.6-67.3v32.6c0 18 14.6 32.6 32.5 32.6 18 0 32.6-14.6 32.6-32.6V36.5h-8.4v32.6c0 13.4-10.9 24.2-24.2 24.2-13.4 0-24.2-10.9-24.2-24.2V36.5h-8.3zM82.4 117.4c-3.2.7-6.5 1.1-9.9 1.1C48.5 118.5 29 99 29 75s19.5-43.5 43.5-43.5C96.6 31.5 116 51 116 75c0 14.7-7.3 27.7-18.5 35.6l15.4 17.6c16-12.2 26.4-31.5 26.4-53.2 0-36.9-29.9-66.9-66.9-66.9S5.6 38 5.6 75s29.9 66.9 66.9 66.9c9.6 0 18.7-2 27-5.7l-17.1-18.8z"/><g><circle class="st1" cx="72.5" cy="75" r="28.4"/></g><g><path class="st0" d="M274.4 81.6c-4.2 6.5-11.5 10.7-19.6 10.7-12.3 0-22.5-9.8-23.1-22h56.7v-1.2c0-18.5-15-33.5-33.6-33.5-18.5 0-33.5 15-33.5 33.5s15 33.5 33.5 33.5c13.9 0 26-8.5 31.1-21h-11.5zm-19.7-35.7c9.5 0 17.9 5.8 21.5 14.4h-42.9c3.6-8.6 12-14.4 21.4-14.4z"/><path class="st1" d="M254.7 103.6c-19 0-34.5-15.5-34.5-34.5s15.5-34.5 34.5-34.5c19.1 0 34.6 15.5 34.6 34.5v2.2h-56.6c1.1 11.3 10.6 20 22 20 7.6 0 14.6-3.8 18.8-10.2l.3-.5h13.5l-.6 1.4c-5.3 13.1-17.8 21.6-32 21.6zm0-66.9c-17.9 0-32.4 14.6-32.4 32.4s14.6 32.4 32.4 32.4c12.8 0 24.2-7.4 29.5-18.9h-9.3c-4.5 6.7-12 10.7-20.2 10.7-12.9 0-23.5-10.1-24.2-23l-.1-1.1h56.7V69c.2-17.8-14.4-32.3-32.4-32.3zm23.1 24.6h-46l.6-1.4c3.8-9.1 12.5-15 22.3-15 9.9 0 18.7 5.9 22.4 15l.7 1.4zm-42.9-2.1h39.7c-3.7-7.5-11.4-12.3-19.9-12.3-8.4 0-16 4.8-19.8 12.3z"/></g><g><path class="st1" d="M173.5 120.6c-.3-.3-.8-.5-1.5-.5h-2v3.5h1.9c.7 0 1.3-.1 1.6-.4.3-.3.5-.7.5-1.3-.1-.6-.2-1-.5-1.3zM207.5 121l-1.5 4.2h3l-1.5-4.2zM382.5 120.6c-.3-.3-.8-.5-1.5-.5h-2v3.5h1.9c.7 0 1.3-.1 1.6-.4.3-.3.5-.7.5-1.3 0-.6-.1-1-.5-1.3z"/><path class="st1" d="M145.6 113.7v20.5h282.6v-20.5H145.6zm6.3 13.4c.4.6 1 .9 1.8.9.7 0 1.3-.2 1.7-.6.4-.4.6-.9.6-1.6h1.3c0 .9-.3 1.7-1 2.3-.7.6-1.5.9-2.6.9s-2-.4-2.7-1.2c-.7-.8-1-1.8-1-3v-1.7c0-1.2.3-2.2 1-3 .7-.8 1.6-1.2 2.7-1.2s2 .3 2.6.9c.7.6 1 1.4 1 2.3H156c0-.7-.2-1.2-.6-1.6-.4-.4-1-.6-1.7-.6s-1.3.3-1.8.9c-.4.6-.7 1.3-.7 2.2v1.8c0 1 .2 1.7.7 2.3zm23.8 1.8h-1.4c-.2-.2-.3-.4-.3-.7 0-.3-.1-.6-.1-.9v-.9c0-.5-.2-1-.5-1.3-.3-.3-.7-.5-1.2-.5h-2.3v4.2h-1.3V119h3.4c1.1 0 1.9.2 2.5.7.6.5.8 1.2.8 2.1 0 .5-.1.9-.4 1.3-.3.4-.6.7-1.1.9.5.2.9.5 1.2.9.2.4.4.9.4 1.5v.9c0 .3 0 .6.1.8.1.2.2.4.4.6v.2zm17.4 0h-6v-9.8h6v1h-4.6v3.2h4v1h-4v3.5h4.7v1.1zm17.1 0l-.9-2.5h-3.7l-.9 2.5h-1.4l3.5-9.8h1.1l3.5 9.8h-1.2zm18.4-8.8h-3.2v8.8h-1.3v-8.8h-3.2v-1h7.7v1zm12.5 8.8h-1.3v-9.8h1.3v9.8zm19.5 0h-1.3l-4.7-7.5v7.5h-1.3v-9.8h1.3l4.7 7.5v-7.5h1.3v9.8zm19-1.3c-.2.4-.6.7-1.2 1-.6.3-1.3.5-2.2.5-1.1 0-2.1-.4-2.8-1.1-.7-.7-1.1-1.7-1.1-2.9v-2c0-1.2.4-2.2 1.1-2.9.7-.7 1.6-1.1 2.8-1.1 1.1 0 2 .3 2.6.9.6.6.9 1.3.9 2.2h-1.3c0-.6-.2-1.1-.6-1.5-.4-.4-.9-.6-1.6-.6-.7 0-1.4.3-1.8.8s-.7 1.3-.7 2.1v2c0 .9.2 1.6.7 2.1.5.6 1.1.8 1.9.8.6 0 1-.1 1.4-.2.3-.2.6-.3.8-.5V125h-2.2v-1h3.5v3.6zm31.2-7.5H306v3.4h4.1v1H306v4.3h-1.3V119h6.1v1.1zm18.3 5.5c0 1.1-.3 1.9-1 2.5-.7.6-1.6.9-2.7.9s-1.9-.3-2.6-.9c-.7-.6-1-1.4-1-2.5v-6.5h1.3v6.5c0 .8.2 1.3.6 1.8.4.4 1 .6 1.7.6s1.3-.2 1.8-.6c.5-.4.7-1 .7-1.8v-6.5h1.3v6.5zm18.6-5.5h-3.2v8.8h-1.3v-8.8H340v-1h7.7v1zm18.2 5.5c0 1.1-.3 1.9-1 2.5-.7.6-1.6.9-2.7.9s-1.9-.3-2.6-.9-1-1.4-1-2.5v-6.5h1.3v6.5c0 .8.2 1.3.6 1.8.4.4 1 .6 1.7.6s1.3-.2 1.8-.6c.4-.4.7-1 .7-1.8v-6.5h1.3v6.5zm18.9 3.3h-1.4c-.2-.2-.3-.4-.3-.7 0-.3-.1-.6-.1-.9v-.9c0-.5-.2-1-.5-1.3-.3-.3-.7-.5-1.2-.5H379v4.2h-1.3V119h3.4c1.1 0 1.9.2 2.5.7.6.5.8 1.2.8 2.1 0 .5-.1.9-.4 1.3s-.6.7-1.1.9c.5.2.9.5 1.2.9s.4.9.4 1.5v.9c0 .3 0 .6.1.8.1.2.2.4.4.6v.2zm17.3 0h-6v-9.8h6v1h-4.6v3.2h4v1h-4v3.5h4.7v1.1zm16.9-.6c-.6.5-1.4.7-2.4.7-.9 0-1.8-.3-2.5-.8s-1.1-1.2-1.1-2.1h1.3c0 .6.2 1.1.7 1.4.5.3 1 .5 1.6.5.6 0 1.1-.1 1.5-.4.4-.3.5-.7.5-1.2 0-.4-.2-.8-.5-1.1-.3-.3-.9-.6-1.7-.8-1-.2-1.8-.6-2.3-1.1-.6-.5-.8-1.1-.8-1.8 0-.8.3-1.4.9-1.9.6-.5 1.4-.8 2.3-.8 1 0 1.9.3 2.5.9.6.6.9 1.3.9 2h-1.3c0-.6-.2-1-.6-1.4-.4-.4-.9-.5-1.5-.5s-1.1.2-1.4.4c-.3.3-.5.7-.5 1.2 0 .4.2.8.5 1.1.4.3.9.5 1.8.8 1 .3 1.7.6 2.3 1.1.5.5.8 1.1.8 1.8-.1.9-.4 1.5-1 2z"/></g></svg>